<?xml version="1.0" standalone="no"?>
<!DOCTYPE svg PUBLIC "-//W3C//DTD SVG 20010904//EN" "http://www.w3.org/TR/2001/REC-SVG-20010904/DTD/svg10.dtd">
<svg xmlns="http://www.w3.org/2000/svg" viewBox="0 0 72 72" ><path class="animate-logo" d="M15.3 8.2v33.4c0 1.9.2 3.6.6 5.3l-6 2.9L1 54.5c1.3-1.7 2.5-3.6 3.6-5.6.9-1.7 1.8-3.7 2.6-5.9.8-2.1 1.3-4.4 1.5-6.7v-2.7l-.2-2.8h0c.1.5.1.9.2 1.4V1.5h15.5V42l.1.7-6.3 3-.3-2-.1-2.2V8.2h-2.3zm52.8 29v4.3c0 4-.8 7.8-2.3 11.5-1.6 3.6-3.7 6.7-6.4 9.4s-5.8 4.8-9.4 6.3c-3.7 1.6-7.5 2.4-11.6 2.4-3.2 0-6.2-.5-9.1-1.5-2.9-.9-5.6-2.3-8-4-2.5-1.7-4.6-3.7-6.5-6.1-1.8-2.4-3.2-5-4.3-7.8l5.9-3c.8 2.4 1.9 4.6 3.3 6.5s3.1 3.6 5 5c1.9 1.3 4.1 2.4 6.4 3.2 2.3.8 4.7 1.2 7.3 1.2 3.2 0 6.2-.6 9-1.8s5.3-2.9 7.4-5c2.1-2.1 3.7-4.5 4.9-7.3 1.2-2.7 1.8-5.7 1.8-9V27l14.8-7.2c-1.5 1.6-2.9 3.3-4.1 5.2-1.1 1.7-2 3.5-2.9 5.6-.8 1.9-1.2 3.9-1.2 6v.6zm-9.9 11.2L31.2 61l1.3.4 1.3.4 23.3-11 .6-1.2.5-1.2h0zM37.5 62.3 55.2 54l.6-1 .6-1-21.2 10 1.1.2 1.2.1h0zM68.2 1.5 52.7 9v2l15.5-7.2V1.5zM52.7 29.2l6.6-3.2v-.6l-13.5 6.4-1 .9-.9.9 8.8-4.4zm1.2 26.4-14.5 6.8c2.9-.1 5.6-.8 8.1-2s4.6-2.8 6.4-4.8zm7.8-54.1-9 4.3V8l13.8-6.5h-4.8zm-2.4 23v-2.1L49.6 27l-.6 1-.8.9-.5.6-.5.6 12.1-5.6zm-23 31-8.4 4c.7.5 1.4.9 2.3 1.2l11.2-5.3c-.9.2-1.9.3-2.9.3h-1.1l-1.1-.1v-.1zM59 44.9l-8.3 3.9-1.6 2c-.5.7-1.1 1.3-1.8 1.9l11.2-5.3.3-1.3.2-1.2zm-30-2.2-4.3 2.2-6.1 2.9.1.5.2.6 8.5-4 .7-1.1.9-1.1zm30.3-21.2v-2.2l-7.6 3.5c-.1.5-.3 1-.6 1.5l-.7 1.4 8.9-4.2zM33.5 54.9 26 58.3l1.1.7 7.9-3.7-1.5-.5v.1zM26.9 46l-7.7 3.6.4.8.4.9 6.5-3.1c0-.9.1-1.6.4-2.2zm24.4 1.5 7.9-3.6.1-1.2-7.4 3.4c-.1.5-.3 1-.6 1.5v-.1zm-20.8 5.9-6.7 3 .8.8.7.7 7.2-3.4-1-.5-1-.6zm28.8-13.8-6.7 3.2-.1 1-.3 1.2 7.1-3.4v-2h0zm1.1-31.4h1.2V9l6.6-3V4.6l-7.8 3.6zm-1.1 5.2V11l-6.6 3v2.4l6.6-3.1v.1zm8.9-6.5-6.6 3v2.4l6.6-3.1V6.9zm0 8.1-6.6 3v2.4l6.6-3.2V15zm-8.9 21.4-6.6 3.2v2.2l6.6-3.1V36.4zm0-5.7-6.6 3.2v2l6.6-3.1v-2.1zm8.9-12.5-6.6 3.2v2l6.6-3.1v-2.1zm-8.9-1.9v-2l-6.6 3v1.3l-.1.8 6.7-3.1zm0 17.4-6.6 3v2l6.6-3v-2zM68.2 10l-6.6 3v2l6.6-3v-2zM28.1 51.3l-6.2 2.9c.2.3.4.6.7.8l.6.8 6.6-3.1-.9-.7-.8-.7zm31.2-32.9v-1.2l-6.9 3.2-.1.7-.2.7 7.2-3.4zm-6.6 12.9V33l6.6-3.2V28l-6.6 3.3h0zm6.6-21V8.7l-6.6 3.2v1.4l6.6-3.1v.1zM26.6 49l-6.2 3 .5.7.5.8 6.2-3-.2-.1v-.1l-.1-.1-.7-1.1V49zm35-33v1.3l6.6-3.1V13l-6.6 3zM52.7 3.5v1.4l7.1-3.4H57l-4.3 2zm8.9 20.7v.6l6.6-3.2v-.4l-6.6 3zM52.7 1.6v1.2l2.4-1.3h-2.4v.1z" vector-effect="non-scaling-stroke" stroke-linecap="round" fill-rule="evenodd" stroke-width=".4" style="stroke:#fff;stroke-width:.1mm;fill:transparent"/></svg>
